<?xml version="1.0" standalone="no"?>
<!DOCTYPE svg PUBLIC "-//W3C//DTD SVG 20010904//EN"
 "http://www.w3.org/TR/2001/REC-SVG-20010904/DTD/svg10.dtd">
<svg version="1.0" xmlns="http://www.w3.org/2000/svg"
 width="200.000000pt" height="200.000000pt" viewBox="0 0 200.000000 200.000000"
 preserveAspectRatio="xMidYMid meet">

<g transform="translate(0.000000,200.000000) scale(0.100000,-0.100000)"
fill="#2B435D" stroke="none">
<path d="M925 1955 c-33 -14 -69 -30 -80 -35 -11 -5 -60 -25 -110 -45 -82 -33
-121 -49 -180 -75 -11 -5 -65 -27 -120 -50 -55 -22 -107 -44 -115 -49 -21 -11
-31 -32 -105 -216 -19 -49 -40 -99 -45 -110 -60 -131 -150 -361 -150 -382 0
-8 16 -51 34 -96 19 -45 58 -138 86 -207 71 -174 67 -163 119 -285 l47 -110
154 -63 c85 -34 162 -65 170 -69 8 -3 88 -37 178 -75 90 -37 177 -68 193 -68
24 0 190 63 314 120 11 5 61 25 110 45 50 20 99 40 110 45 11 5 52 22 90 38
79 33 74 25 145 202 28 69 55 134 60 145 20 45 119 283 136 330 10 28 17 57
15 65 -2 13 -67 173 -91 225 -5 11 -32 76 -60 145 -28 69 -57 139 -64 155 -7
17 -25 60 -41 97 l-27 66 -107 42 c-99 39 -168 68 -216 90 -78 36 -345 142
-365 146 -14 2 -52 -7 -85 -21z m103 -61 c4 -29 -23 -51 -43 -34 -16 13 -20
42 -8 54 14 14 48 1 51 -20z m150 -104 c379 -91 632 -409 632 -795 0 -320
-180 -602 -470 -738 -189 -88 -454 -94 -645 -14 -63 27 -167 89 -223 135 -116
95 -224 274 -263 437 -18 77 -20 109 -16 215 10 219 76 376 226 533 189 199
495 290 759 227z m-799 -139 c15 -27 -11 -60 -36 -45 -23 14 -29 44 -11 55 21
14 37 10 47 -10z m1285 3 c20 -20 5 -54 -24 -54 -25 0 -39 48 -19 61 19 12 25
11 43 -7z m-1526 -650 c2 -11 -3 -26 -11 -33 -29 -24 -70 17 -46 46 17 20 53
12 57 -13z m1780 14 c17 -17 15 -36 -7 -47 -27 -15 -56 9 -47 37 8 24 35 29
54 10z m-1538 -667 c7 -15 6 -23 -6 -35 -12 -12 -20 -13 -35 -6 -19 10 -26 40
-12 53 13 14 43 7 53 -12z m1289 5 c26 -32 -19 -68 -50 -40 -14 13 -16 21 -8
35 11 22 42 25 58 5z m-651 -225 c8 -4 12 -19 10 -32 -2 -18 -9 -24 -28 -24
-19 0 -26 6 -28 24 -5 32 20 49 46 32z"/>
<path d="M872 1735 c-411 -79 -689 -482 -607 -877 19 -90 47 -165 80 -218 14
-22 25 -42 25 -46 0 -14 104 -129 158 -174 76 -63 218 -134 309 -154 40 -9
113 -16 163 -16 471 0 826 434 734 896 -10 50 -34 117 -66 183 -45 90 -63 116
-142 195 -76 76 -108 99 -186 138 -52 26 -124 54 -160 63 -95 22 -223 27 -308
10z m319 -96 c158 -47 315 -171 391 -309 65 -117 82 -189 82 -330 0 -178 -36
-285 -140 -420 -105 -134 -252 -218 -434 -245 -76 -11 -104 -11 -183 0 -259
39 -453 202 -544 456 -22 64 -26 90 -26 199 -1 103 3 138 21 196 38 119 86
197 179 290 47 46 89 84 94 84 4 0 30 12 56 28 140 80 338 100 504 51z"/>
<path d="M1105 1541 c-5 -15 -21 -19 -112 -25 -122 -8 -203 -32 -278 -82 -154
-102 -238 -256 -238 -434 0 -134 39 -239 131 -347 49 -58 62 -65 62 -30 0 27
32 64 67 78 l24 9 -33 43 c-53 65 -66 90 -82 155 -20 75 -20 109 0 185 39 153
190 277 337 277 44 0 48 -2 42 -20 -8 -24 -1 -24 112 -10 125 16 143 20 143
31 0 16 -143 188 -157 188 -6 1 -14 -7 -18 -18z"/>
<path fill="#3B82F6" d="M1358 1340 c-12 -28 -26 -45 -49 -54 -17 -7 -27 -16 -21 -20 5 -3 27
-31 47 -61 27 -41 38 -70 42 -110 l6 -55 -251 0 c-281 0 -272 3 -272 -74 0
-65 4 -66 271 -66 236 0 239 0 239 -21 0 -11 -8 -35 -17 -52 -61 -110 -159
-179 -278 -196 -73 -11 -80 -9 -80 17 0 20 -37 19 -125 -4 -30 -8 -65 -14 -77
-14 -49 0 -37 -29 48 -115 45 -47 85 -85 89 -85 3 0 11 13 17 30 11 30 11 30
92 30 193 0 375 118 458 297 33 71 37 88 41 185 3 82 1 120 -12 160 -26 82
-65 155 -110 204 l-41 45 -17 -41z"/>
</g>
</svg>
